<svg xmlns="http://www.w3.org/2000/svg" viewBox="3339 218 35.912 35.912"><defs><style>.a{fill:none;}.b{fill:#1a1a1a;}.c,.d{stroke:none;}.d{fill:#707070;}</style></defs><g transform="translate(2143 -425)"><g class="a" transform="translate(1196 643)"><path class="c" d="M17.956,0A17.956,17.956,0,1,1,0,17.956,17.956,17.956,0,0,1,17.956,0Z"/><path class="d" d="M 17.9561767578125 34.91235733032227 C 22.48533630371094 34.91235733032227 26.74340629577637 33.14860534667969 29.94600677490234 29.94600677490234 C 33.14860534667969 26.74340629577637 34.91235733032227 22.48533630371094 34.91235733032227 17.9561767578125 C 34.91235733032227 13.42701721191406 33.14860534667969 9.168947219848633 29.94600677490234 5.966346740722656 C 26.74340629577637 2.763746738433838 22.48533630371094 0.9999967813491821 17.9561767578125 0.9999967813491821 C 13.42701721191406 0.9999967813491821 9.168947219848633 2.763746738433838 5.966346740722656 5.966346740722656 C 2.763746738433838 9.168947219848633 0.9999967813491821 13.42701721191406 0.9999967813491821 17.9561767578125 C 0.9999967813491821 22.48533630371094 2.763746738433838 26.74340629577637 5.966346740722656 29.94600677490234 C 9.168947219848633 33.14860534667969 13.42701721191406 34.91235733032227 17.9561767578125 34.91235733032227 M 17.9561767578125 35.91235733032227 C 8.039257049560547 35.91235733032227 -3.2421874038846e-06 27.87309646606445 -3.2421874038846e-06 17.9561767578125 C -3.2421874038846e-06 8.039257049560547 8.039257049560547 -3.2421874038846e-06 17.9561767578125 -3.2421874038846e-06 C 27.87309646606445 -3.2421874038846e-06 35.91235733032227 8.039257049560547 35.91235733032227 17.9561767578125 C 35.91235733032227 27.87309646606445 27.87309646606445 35.91235733032227 17.9561767578125 35.91235733032227 Z"/></g><g transform="translate(1213.956 652.034) rotate(45)"><rect class="b" width="0.765" height="12.618" rx="0.382" transform="translate(5.735)"/><rect class="b" width="0.765" height="12.618" rx="0.382" transform="translate(12.618 5.735) rotate(90)"/></g></g></svg>