<svg xmlns="http://www.w3.org/2000/svg" viewBox="5462.2 384 80 48.905"><defs><style>.a{fill:#9381ff;}</style></defs><path class="a" d="M24.846,73.905h48.61a15.732,15.732,0,0,0,6.4-30.111A22.772,22.772,0,0,0,40.295,32.774a14.981,14.981,0,0,0-4.133-.59A15.4,15.4,0,0,0,21.6,42.811a15.725,15.725,0,0,0,3.247,31.095Zm0-26.47h.886A10.331,10.331,0,0,1,36.063,37.1a10.635,10.635,0,0,1,5.806,1.771,17.935,17.935,0,0,1,33.456,8.659,10.806,10.806,0,0,1-1.87,21.451H24.846a10.775,10.775,0,1,1,0-21.55Z" transform="translate(5453 359)"/></svg>