<svg xmlns="http://www.w3.org/2000/svg" viewBox="5829 568 22.196 21.255"><defs><style>.a{fill:#1b1817;fill-rule:evenodd;}</style></defs><g transform="translate(5647.241 494.072)"><g transform="translate(181.76 73.928)"><path class="a" d="M192.857-592.725a11,11,0,0,0-11.1,10.9,10.92,10.92,0,0,0,7.59,10.339c.555.1.758-.237.758-.526,0-.259-.01-.944-.015-1.853-3.087.658-3.738-1.461-3.738-1.461a2.9,2.9,0,0,0-1.232-1.594c-1.008-.676.076-.662.076-.662a2.326,2.326,0,0,1,1.7,1.123,2.388,2.388,0,0,0,3.23.905,2.313,2.313,0,0,1,.7-1.456c-2.464-.276-5.055-1.21-5.055-5.385a4.169,4.169,0,0,1,1.143-2.924,3.849,3.849,0,0,1,.109-2.884s.931-.293,3.052,1.116a10.848,10.848,0,0,1,2.778-.367,10.861,10.861,0,0,1,2.778.367c2.119-1.409,3.049-1.116,3.049-1.116a3.85,3.85,0,0,1,.111,2.884,4.162,4.162,0,0,1,1.141,2.924c0,4.186-2.6,5.107-5.067,5.377a2.578,2.578,0,0,1,.753,2.018c0,1.456-.014,2.632-.014,2.989,0,.292.2.631.763.524a10.92,10.92,0,0,0,7.584-10.338,11,11,0,0,0-11.1-10.9" transform="translate(-181.76 592.725)"/></g></g></svg>