<svg xmlns="http://www.w3.org/2000/svg" xmlns:xlink="http://www.w3.org/1999/xlink" viewBox="1230.203 -813 312.269 96"><defs><style>.a{fill:#1a1a1a;}.b{fill:url(#a);}.c{fill:#fff;}</style><linearGradient id="a" x1="0.228" y1="0.892" x2="1.151" y2="-0.224" gradientUnits="objectBoundingBox"><stop offset="0" stop-color="#9381ff"/><stop offset="1" stop-color="#4bb3fd"/></linearGradient></defs><g transform="translate(1136 -1015)"><path class="a" d="M14.92,5.794H5.492V-48.679H14.92ZM31.814-34.686l.262,4.677a14.555,14.555,0,0,1,11.785-5.425q12.646,0,12.87,14.479V5.794H47.639V-20.432q0-3.854-1.665-5.705T40.531-27.99a8.76,8.76,0,0,0-8.193,4.976V5.794H23.246V-34.686Zm34.7,40.481V-48.679H80.846q8.792,0,13.3,3.573t4.508,10.382a13.033,13.033,0,0,1-2.507,8.193,11.308,11.308,0,0,1-7.071,4.153,13.632,13.632,0,0,1,8.6,4.471,12.581,12.581,0,0,1,3.442,8.7q0,6.959-4.508,10.981T84.063,5.794Zm2.02-26.9V3.774H84.288q6.921,0,10.868-3.423T99.1-9.133a10.826,10.826,0,0,0-3.816-8.511q-3.816-3.348-10.214-3.461Zm0-2.02H81.594q7.445,0,11.224-2.862T96.6-34.874q0-11.6-15.3-11.785H68.537ZM127.221-33.19l-2.619-.224a11.982,11.982,0,0,0-8.642,3.345,16.673,16.673,0,0,0-4.564,9.363v26.5h-2.02V-34.686h2.02v8.418a14.9,14.9,0,0,1,4.938-6.7,13.4,13.4,0,0,1,8.268-2.469,8.029,8.029,0,0,1,2.843.419Zm7.99,38.984h-2.02V-34.686h2.02Zm-3.068-53.126a2.048,2.048,0,0,1,.6-1.478,1.955,1.955,0,0,1,1.459-.617,2.016,2.016,0,0,1,1.478.617,2.016,2.016,0,0,1,.617,1.478,1.955,1.955,0,0,1-.617,1.459,2.048,2.048,0,0,1-1.478.6,1.986,1.986,0,0,1-1.459-.6A1.986,1.986,0,0,1,132.143-47.332Zm28.6,53.874a16.287,16.287,0,0,1-9-2.638,18.1,18.1,0,0,1-6.416-7.239,22.366,22.366,0,0,1-2.32-10.214v-1.684a23.464,23.464,0,0,1,2.245-10.289,17.783,17.783,0,0,1,6.173-7.3A15.135,15.135,0,0,1,160-35.435a14.159,14.159,0,0,1,11.074,4.826q4.3,4.826,4.3,12.683v2.133H145.034v2.2a20.322,20.322,0,0,0,2.076,9.131,16.342,16.342,0,0,0,5.724,6.591,14.159,14.159,0,0,0,7.913,2.39,16.108,16.108,0,0,0,6.94-1.357,14.118,14.118,0,0,0,5.069-4.181L174.179,0Q169.652,6.542,160.747,6.542ZM160-33.414a13.217,13.217,0,0,0-10.027,4.4,18.723,18.723,0,0,0-4.826,11.205h28.209V-18.3a17.093,17.093,0,0,0-1.74-7.651,13.413,13.413,0,0,0-4.789-5.5A12.34,12.34,0,0,0,160-33.414ZM185.573,5.794v-38.46h-7.034v-2.02h7.034V-40.6q.037-5.612,2.825-8.736a9.866,9.866,0,0,1,7.763-3.124,16.025,16.025,0,0,1,4.789.636l-.3,1.945a16.09,16.09,0,0,0-4.452-.561,7.985,7.985,0,0,0-6.3,2.6q-2.3,2.6-2.3,7.389v5.762h10.7v2.02h-10.7V5.794Z" transform="translate(205.522 273.457)"/><g transform="translate(94.203 202)"><circle class="b" cx="48" cy="48" r="48" transform="translate(0 0)"/><rect class="c" width="11.84" height="51.84" rx="5.92" transform="translate(32.64 21.44)"/><rect class="c" width="11.84" height="23.36" rx="5.92" transform="translate(51.84 21.44)"/></g></g></svg>