<svg xmlns="http://www.w3.org/2000/svg" viewBox="5299 212 105.263 80"><defs><style>.a{fill:#9381ff;}</style></defs><path class="a" d="M52.456,37.025V29.832a2.632,2.632,0,1,1,5.263,0v7.193a2.632,2.632,0,1,1-5.263,0Zm-20,25.263a2.7,2.7,0,0,0-2.632-2.632H22.632a2.632,2.632,0,0,0,0,5.263h7.193A2.7,2.7,0,0,0,32.456,62.288ZM72.982,47.025a2.638,2.638,0,0,0,1.93-.7L80,41.235a2.605,2.605,0,1,0-3.684-3.684l-5.088,5.088a2.544,2.544,0,0,0,0,3.684A3.7,3.7,0,0,0,72.982,47.025Zm-37.719,31.4-5.088,5.088a2.544,2.544,0,0,0,0,3.684,3,3,0,0,0,3.86,0l5.088-5.088a2.544,2.544,0,0,0,0-3.684A2.753,2.753,0,0,0,35.263,78.428Zm0-32.281a3,3,0,0,0,3.86,0,2.544,2.544,0,0,0,0-3.684l-5.088-5.088a2.605,2.605,0,1,0-3.684,3.684ZM40,62.288A15.274,15.274,0,0,1,55.263,47.025a15.111,15.111,0,0,1,13.158,7.544,27.575,27.575,0,0,1,3.333-4.561,20.026,20.026,0,0,0-16.316-8.246A20.553,20.553,0,0,0,34.912,62.288a20.283,20.283,0,0,0,8.6,16.667,25.008,25.008,0,0,1,2.281-4.912A14.543,14.543,0,0,1,40,62.288ZM125.263,86.5a20.74,20.74,0,0,1-20.7,20.7H66.14a20.7,20.7,0,1,1,0-41.4h1.754a25.918,25.918,0,0,1,51.579,3.684,13.279,13.279,0,0,1-.175,2.632A20.169,20.169,0,0,1,125.263,86.5ZM120,86.5a16.077,16.077,0,0,0-5.088-11.579,2.284,2.284,0,0,1-.877-2.281,24.653,24.653,0,0,0,.351-3.158,20.74,20.74,0,0,0-20.7-20.7A20.379,20.379,0,0,0,73.158,68.428a2.549,2.549,0,0,1-2.632,2.456H66.316a15.439,15.439,0,1,0,0,30.877h38.421A15.161,15.161,0,0,0,120,86.5Z" transform="translate(5279 184.8)"/></svg>