<svg xmlns="http://www.w3.org/2000/svg" viewBox="5658 240 81.301 69.104"><defs><style>.a{fill:#9381ff;}</style></defs><path class="a" d="M68.959,182.492a1.744,1.744,0,0,0-2.352.742l-5.689,10.937a1.744,1.744,0,1,0,3.1,1.61L69.7,184.844A1.744,1.744,0,0,0,68.959,182.492Z" transform="translate(5608.696 112.383)"/><path class="a" d="M164.51,182.492a1.744,1.744,0,0,0-2.352.742l-5.689,10.937a1.744,1.744,0,1,0,3.095,1.61l5.689-10.937A1.745,1.745,0,0,0,164.51,182.492Z" transform="translate(5547.661 112.383)"/><path class="a" d="M124.608,167.353a1.744,1.744,0,0,0-2.352.742l-5.689,10.938a1.744,1.744,0,1,0,3.1,1.61l5.689-10.938A1.744,1.744,0,0,0,124.608,167.353Z" transform="translate(5573.149 122.053)"/><path class="a" d="M95.579,48.527c-.295,0-.59.01-.885.028a24.168,24.168,0,0,0-43.8-6.195,18.123,18.123,0,1,0-4.8,35.838c.037,0,.074,0,.111,0H50.76l-1.519,2.919a1.744,1.744,0,1,0,3.095,1.61L54.692,78.2H85.276l-1.519,2.919a1.744,1.744,0,1,0,3.095,1.61L89.207,78.2h6.372a14.837,14.837,0,1,0,0-29.674Zm0,26.186H46.26a14.637,14.637,0,0,1-6.139-27.391,14.525,14.525,0,0,1,9.071-1.72,23.852,23.852,0,0,0-1.261,3.742,1.744,1.744,0,1,0,3.388.833,20.7,20.7,0,0,1,39.925-1,14.783,14.783,0,0,0-2.221.874,1.744,1.744,0,1,0,1.542,3.129,11.349,11.349,0,1,1,5.015,21.53Z" transform="translate(5628.884 209.07)"/></svg>