<svg xmlns="http://www.w3.org/2000/svg" viewBox="5473.5 234.5 85.063 80.5"><defs><style>.a,.b{fill:#9381ff;}.b{stroke:#9381ff;}</style></defs><g transform="translate(-15 -24)"><path class="a" d="M37.823,67.385a1.457,1.457,0,0,0-1.456,1.459,1.488,1.488,0,0,0,.427,1.033,1.461,1.461,0,0,0,1.03.424,1.5,1.5,0,0,0,1.033-.424,1.459,1.459,0,0,0-1.033-2.492Z" transform="translate(5473.962 258.014)"/><path class="a" d="M50.5,67.385a1.47,1.47,0,0,0-1.03.427,1.453,1.453,0,0,0-.427,1.033A1.452,1.452,0,0,0,50.5,70.3a1.458,1.458,0,0,0,0-2.915Z" transform="translate(5480.532 258.014)"/><path class="a" d="M63.166,67.385a1.457,1.457,0,0,0-1.459,1.459,1.5,1.5,0,0,0,.427,1.033A1.459,1.459,0,0,0,64.2,67.812,1.451,1.451,0,0,0,63.166,67.385Z" transform="translate(5487.1 258.014)"/><path class="a" d="M44.159,74.422a1.47,1.47,0,0,0-1.03.427,1.44,1.44,0,0,0-.427,1.033,1.486,1.486,0,0,0,.427,1.033,1.461,1.461,0,0,0,1.03.424,1.447,1.447,0,0,0,1.456-1.456,1.452,1.452,0,0,0-1.456-1.459Z" transform="translate(5477.247 261.663)"/><path class="a" d="M56.828,74.422a1.476,1.476,0,0,0-1.03.427,1.45,1.45,0,0,0-.424,1.033,1.5,1.5,0,0,0,.424,1.033,1.466,1.466,0,0,0,1.03.424,1.493,1.493,0,0,0,1.033-.424,1.459,1.459,0,0,0-1.033-2.492Z" transform="translate(5483.817 261.663)"/><path class="b" d="M88.712,41.628A27.534,27.534,0,0,0,35.394,49.8a14.494,14.494,0,0,0,1.421,28.918H88.972a1.6,1.6,0,0,0,.469-.074,18.555,18.555,0,0,0-.729-37.019Zm.159,34.146a1.59,1.59,0,0,0-.255.038h-51.8a11.581,11.581,0,0,1,0-23.161,1.459,1.459,0,0,0,1.456-1.459,24.621,24.621,0,0,1,48.016-7.668,1.462,1.462,0,0,0,1.4,1l.134,0a15.643,15.643,0,0,1,1.055,31.252Z" transform="translate(5466.679 235.342)"/></g></svg>