<svg xmlns="http://www.w3.org/2000/svg" viewBox="4547 252.114 80 80"><defs><style>.a{fill:#9381ff;}</style></defs><g transform="translate(4547 252.114)"><g transform="translate(0 0)"><path class="a" d="M65.427,28.762l7.856-7.856a2.963,2.963,0,0,0-4.189-4.19l-7.856,7.856a2.963,2.963,0,1,0,4.189,4.19ZM22.038,45a2.963,2.963,0,0,0-2.963-2.963H7.963a2.963,2.963,0,0,0,0,5.925H19.075A2.963,2.963,0,0,0,22.038,45Zm2.535-16.236a2.963,2.963,0,0,0,4.19-4.19l-7.858-7.858a2.963,2.963,0,0,0-4.19,4.19ZM45,22.038a2.963,2.963,0,0,0,2.963-2.963V7.963a2.963,2.963,0,0,0-5.925,0V19.075A2.963,2.963,0,0,0,45,22.038Zm-20.427,39.2L16.716,69.1a2.963,2.963,0,1,0,4.19,4.189l7.858-7.858a2.963,2.963,0,0,0-4.19-4.191Zm40.853,0a2.962,2.962,0,1,0-4.189,4.189l7.856,7.856A2.962,2.962,0,0,0,73.283,69.1ZM45,67.964a2.962,2.962,0,0,0-2.963,2.963v11.11a2.963,2.963,0,0,0,5.925,0V70.927A2.962,2.962,0,0,0,45,67.964ZM82.037,42.037H70.927a2.963,2.963,0,1,0,0,5.925h11.11a2.963,2.963,0,0,0,0-5.925ZM45,27.222A17.778,17.778,0,1,0,62.778,45,17.8,17.8,0,0,0,45,27.222Zm0,29.629A11.852,11.852,0,1,1,56.852,45,11.865,11.865,0,0,1,45,56.852Z" transform="translate(-5 -5)"/></g></g></svg>