<svg xmlns="http://www.w3.org/2000/svg" viewBox="3840 1141 22.333 19.88"><defs><style>.a{fill:#fff;}</style></defs><g transform="translate(3963.277 768.29)"><g transform="translate(-123.277 372.71)"><path class="a" d="M31.589,17.764a4.478,4.478,0,0,1,3.275,1.417c.679.018.751.024,1.079.024.2,0,.488,0,1.058-.006-.362,1.271-.459,1.532-.923,2.992.008.193.013.385.013.58A12.678,12.678,0,0,1,23.326,35.535c-3.951,0-6.169-1.953-5.807-1.953a9,9,0,0,0,5.573-1.92c-1.963-.037-9.111-4.577-5.12-13.077a12.739,12.739,0,0,0,9.248,4.687,4.491,4.491,0,0,1,4.37-5.508M37,19.2h0M31.589,16.71a5.547,5.547,0,0,0-5.538,5.383,11.737,11.737,0,0,1-7.263-4.174,1.054,1.054,0,0,0-1.771.218c-2.238,4.767-1.161,8.253.137,10.338a10.43,10.43,0,0,0,3.5,3.417,7.944,7.944,0,0,1-3.136.636,1.089,1.089,0,0,0-1.092,1.082c0,1.038,1.632,1.772,2.168,2.013a11.538,11.538,0,0,0,4.732.966,13.258,13.258,0,0,0,10.268-4.516,14.271,14.271,0,0,0,3.551-9.3c0-.144,0-.29-.007-.436l.2-.633c.261-.815.383-1.194.661-2.17a1.054,1.054,0,0,0-1-1.388h-.009l-.34,0-.711,0c-.212,0-.311,0-.554-.01l-.084,0a5.572,5.572,0,0,0-3.716-1.429Z" transform="translate(-15.723 -16.71)"/></g></g></svg>